<?xml version="1.0" encoding="UTF-8"?>
<svg width="1009px" height="1208px" viewBox="0 0 1009 1208" version="1.1" xmlns="http://www.w3.org/2000/svg" xmlns:xlink="http://www.w3.org/1999/xlink">
    <!-- Generator: Sketch 51.2 (57519) - http://www.bohemiancoding.com/sketch -->
    <defs></defs>
    <g id="Page-1" stroke="none" stroke-width="1" fill="none" fill-rule="evenodd">
        <g id="logo" transform="translate(-2031.000000, -1381.000000)">
            <g id="Group-6" transform="translate(2031.000000, 1381.000000)">
                <path d="M861.7031,1207.4209 C846.9981,1207.4209 832.2211,1202.3709 820.1771,1192.0549 L514.0681,929.8299 C465.9311,888.5939 449.0311,823.5349 471.0141,764.0839 C492.9961,704.6329 548.1561,666.2189 611.5411,666.2189 C685.1581,666.2189 753.8641,637.0359 805.0021,584.0479 C856.1101,531.0899 882.8121,461.2989 880.1891,387.5319 C875.1121,244.7399 751.0201,128.5699 603.5671,128.5699 L63.8991,128.5699 C28.6221,128.5699 0.0241,99.9729 0.0241,64.6949 C0.0241,29.4179 28.6221,0.8199 63.8991,0.8199 L603.5671,0.8199 C655.9551,0.8199 707.1441,10.6829 755.7161,30.1339 C802.8771,49.0219 845.5701,76.1139 882.6091,110.6599 C959.6891,182.5529 1004.1711,279.2689 1007.8591,382.9929 C1009.8121,437.9249 1000.7241,491.4739 980.8481,542.1499 C961.7091,590.9469 933.4741,634.8919 896.9261,672.7619 C860.3451,710.6659 817.3841,740.4749 769.2351,761.3589 C719.3521,782.9969 666.2961,793.9689 611.5411,793.9689 C598.1641,793.9689 592.8251,803.0029 590.8351,808.3889 C588.8431,813.7749 587.0191,824.1089 597.1791,832.8109 L903.2871,1095.0349 C930.0791,1117.9849 933.1921,1158.3089 910.2421,1185.1009 C897.6081,1199.8479 879.7101,1207.4209 861.7031,1207.4209" id="Fill-2" fill="#37DB6B"></path>
                <path d="M104.7568,1207.4199 C69.4798,1207.4199 40.8818,1178.8219 40.8818,1143.5449 L40.8818,689.5669 C40.8818,641.5289 50.3038,594.8939 68.8878,550.9579 C86.8238,508.5519 112.4878,470.4819 145.1658,437.8039 C177.8438,405.1249 215.9148,379.4619 258.3198,361.5259 C302.2568,342.9419 348.8918,333.5199 396.9298,333.5199 L611.5408,333.5199 C646.8188,333.5199 675.4158,362.1169 675.4158,397.3949 C675.4158,432.6719 646.8188,461.2699 611.5408,461.2699 L396.9298,461.2699 C271.0458,461.2699 168.6318,563.6839 168.6318,689.5669 L168.6318,1143.5449 C168.6318,1178.8219 140.0338,1207.4199 104.7568,1207.4199" id="Fill-4" fill="#FFFFFF"></path>
            </g>
        </g>
    </g>
</svg>